<svg width="24" height="24" viewBox="0 0 24 24" fill="none" xmlns="http://www.w3.org/2000/svg">
<path d="M12.435 14.3302L2.91745 8.27338C2.42541 7.94799 2.08085 7.44237 1.95795 6.86541C1.83505 6.28845 1.94365 5.6863 2.26037 5.18863C2.57709 4.69096 3.07659 4.33758 3.65131 4.20458C4.22602 4.07159 4.82998 4.16962 5.33313 4.47756L12.3156 8.92079L18.585 4.53216C19.0741 4.2007 19.674 4.07495 20.255 4.18207C20.8361 4.28918 21.3517 4.62056 21.6905 5.10464C22.0293 5.58871 22.1641 6.18663 22.0658 6.76925C21.9674 7.35187 21.6439 7.87242 21.165 8.21848L12.435 14.3302Z" fill="#EA4435"/>
<path d="M20.6251 19.8755H17.6251V6.37549C17.6251 5.77875 17.8622 5.20645 18.2841 4.7845C18.7061 4.36254 19.2784 4.12549 19.8751 4.12549V4.12549C20.4719 4.12549 21.0442 4.36254 21.4661 4.7845C21.8881 5.20645 22.1251 5.77875 22.1251 6.37549V18.3755C22.1251 18.7733 21.9671 19.1548 21.6858 19.4361C21.4045 19.7175 21.0229 19.8755 20.6251 19.8755V19.8755Z" fill="#00AC47"/>
<path d="M22.0921 6.04921C22.0855 6.00421 22.086 5.95823 22.0766 5.91331C22.0622 5.84446 22.0355 5.78086 22.0149 5.71441C21.995 5.63835 21.971 5.56342 21.9431 5.48993C21.9281 5.45431 21.905 5.42303 21.8879 5.38838C21.8413 5.28841 21.7873 5.19202 21.7264 5.10001C21.6964 5.05643 21.6589 5.01931 21.6257 4.97806C21.5689 4.90309 21.5074 4.83173 21.4416 4.76438C21.3917 4.71586 21.3349 4.67528 21.2807 4.63156C21.223 4.58215 21.163 4.53566 21.1007 4.49228C21.0412 4.45343 20.9761 4.42351 20.9132 4.39036C20.8469 4.35578 20.7819 4.31813 20.7129 4.29053C20.6462 4.26368 20.5751 4.24658 20.5055 4.22611C20.4358 4.20563 20.3665 4.18111 20.2949 4.16783C20.2063 4.15359 20.1169 4.14458 20.0272 4.14083C19.9703 4.13686 19.9139 4.12688 19.8567 4.12733C19.7506 4.13043 19.6449 4.14108 19.5403 4.15921C19.4981 4.16551 19.4555 4.16498 19.4136 4.17368C19.2721 4.21693 19.131 4.26143 18.9902 4.30718C18.9516 4.32368 18.9178 4.34821 18.8804 4.36681C18.4995 4.54453 18.1783 4.82875 17.9555 5.18513C17.7327 5.54151 17.6179 5.95478 17.6249 6.37501V10.6965L21.1649 8.21828C21.5126 7.98498 21.7851 7.65592 21.9496 7.27094C22.1141 6.88595 22.1635 6.46154 22.0919 6.04906L22.0921 6.04921Z" fill="#FFBA00"/>
<path d="M4.125 4.125C4.72174 4.125 5.29403 4.36205 5.71599 4.78401C6.13795 5.20597 6.375 5.77826 6.375 6.375V19.875H3.375C2.97718 19.875 2.59564 19.717 2.31434 19.4357C2.03304 19.1544 1.875 18.7728 1.875 18.375V6.375C1.875 5.77826 2.11205 5.20597 2.53401 4.78401C2.95597 4.36205 3.52826 4.125 4.125 4.125V4.125Z" fill="#4285F4"/>
<path d="M1.90797 6.04925C1.91457 6.00425 1.91405 5.95827 1.92342 5.91335C1.93782 5.8445 1.9646 5.7809 1.98515 5.71445C2.00507 5.63842 2.02905 5.56351 2.057 5.49005C2.072 5.45442 2.0951 5.42315 2.1122 5.3885C2.15883 5.28848 2.21283 5.19206 2.27375 5.10005C2.30375 5.05647 2.34125 5.01935 2.3744 4.9781C2.43126 4.90313 2.49273 4.83176 2.55845 4.76442C2.60832 4.7159 2.66517 4.67532 2.71947 4.6316C2.77709 4.58216 2.83716 4.53568 2.89947 4.49232C2.95895 4.45347 3.02405 4.42355 3.08697 4.3904C3.152 4.35361 3.21884 4.32012 3.28722 4.29005C3.35397 4.2632 3.42507 4.2461 3.49467 4.22562C3.56427 4.20515 3.63365 4.18062 3.7052 4.16735C3.79384 4.15311 3.88325 4.14409 3.97295 4.14035C4.02995 4.13637 4.08627 4.1264 4.14342 4.12685C4.24952 4.12993 4.35527 4.14059 4.45985 4.15872C4.50207 4.16502 4.5446 4.1645 4.5866 4.1732C4.6592 4.19169 4.73079 4.21392 4.8011 4.2398C4.8718 4.25859 4.94151 4.28092 5.00997 4.3067C5.04852 4.3232 5.08235 4.34772 5.11985 4.36632C5.21707 4.412 5.31086 4.46463 5.4005 4.52382C5.70098 4.73014 5.94672 5.00649 6.11651 5.32902C6.2863 5.65155 6.37503 6.01056 6.37505 6.37505V10.6965L2.83505 8.21847C2.48748 7.9851 2.21496 7.65604 2.05044 7.27108C1.88591 6.88611 1.83643 6.46173 1.90797 6.04925V6.04925Z" fill="#C52528"/>
</svg>
